REM DIRINDEX 1\2,1\3,1\4,1\5
REM DIRNAME folder01,folder02,folder03,folder04,folder05
TITLE ""
FILE "Round-09-216-217.mp3" MP3
  TRACK 01 AUDIO
    TITLE "0:"
    INDEX 01 00:00:00
  TRACK 02 AUDIO
    TITLE "2:cjc093_2436"
    INDEX 01 00:00:01
  TRACK 03 AUDIO
    TITLE "0:"
    INDEX 01 00:01:24
  TRACK 04 AUDIO
    TITLE "3:cjc093_2437"
    INDEX 01 00:01:52
  TRACK 05 AUDIO
    TITLE "0:"
    INDEX 01 00:02:67
  TRACK 06 AUDIO
    TITLE "4:cjc093_2438"
    INDEX 01 00:03:15
  TRACK 07 AUDIO
    TITLE "0:"
    INDEX 01 00:05:67
  TRACK 08 AUDIO
    TITLE "2:cjc093_2439"
    INDEX 01 00:07:02
  TRACK 09 AUDIO
    TITLE "0:"
    INDEX 01 00:08:05
  TRACK 10 AUDIO
    TITLE "2:cjc093_2440"
    INDEX 01 00:08:38
  TRACK 11 AUDIO
    TITLE "0:"
    INDEX 01 00:09:53
  TRACK 12 AUDIO
    TITLE "3:cjc093_2441"
    INDEX 01 00:10:16
  TRACK 13 AUDIO
    TITLE "0:"
    INDEX 01 00:11:64
  TRACK 14 AUDIO
    TITLE "4:cjc093_2442"
    INDEX 01 00:12:24
  TRACK 15 AUDIO
    TITLE "0:"
    INDEX 01 00:14:43
  TRACK 16 AUDIO
    TITLE "2:cjc093_2443"
    INDEX 01 00:15:52
  TRACK 17 AUDIO
    TITLE "0:"
    INDEX 01 00:17:10
  TRACK 18 AUDIO
    TITLE "3:cjc093_2444"
    INDEX 01 00:17:27
  TRACK 19 AUDIO
    TITLE "0:"
    INDEX 01 00:18:44
  TRACK 20 AUDIO
    TITLE "4:cjc093_2445"
    INDEX 01 00:18:66
  TRACK 21 AUDIO
    TITLE "0:"
    INDEX 01 00:21:35
  TRACK 22 AUDIO
    TITLE "3:cjc093_2446"
    INDEX 01 00:22:48
  TRACK 23 AUDIO
    TITLE "0:"
    INDEX 01 00:24:55
  TRACK 24 AUDIO
    TITLE "4:cjc093_2447"
    INDEX 01 00:25:03
  TRACK 25 AUDIO
    TITLE "0:"
    INDEX 01 00:27:32
  TRACK 26 AUDIO
    TITLE "2:cjc093_2448"
    INDEX 01 00:28:45
  TRACK 27 AUDIO
    TITLE "0:"
    INDEX 01 00:29:58
  TRACK 28 AUDIO
    TITLE "3:cjc093_2449"
    INDEX 01 00:30:18
  TRACK 29 AUDIO
    TITLE "0:"
    INDEX 01 00:31:37
  TRACK 30 AUDIO
    TITLE "4:cjc093_2450"
    INDEX 01 00:31:61
  TRACK 31 AUDIO
    TITLE "0:"
    INDEX 01 00:35:08
  TRACK 32 AUDIO
    TITLE "2:cjc093_2451"
    INDEX 01 00:36:17
  TRACK 33 AUDIO
    TITLE "0:"
    INDEX 01 00:37:38
  TRACK 34 AUDIO
    TITLE "3:cjc093_2452"
    INDEX 01 00:37:57
  TRACK 35 AUDIO
    TITLE "0:"
    INDEX 01 00:39:07
  TRACK 36 AUDIO
    TITLE "4:cjc093_2453"
    INDEX 01 00:39:72
  TRACK 37 AUDIO
    TITLE "0:"
    INDEX 01 00:43:13
  TRACK 38 AUDIO
    TITLE "3:cjc093_2454"
    INDEX 01 00:44:22
  TRACK 39 AUDIO
    TITLE "0:"
    INDEX 01 00:45:65
  TRACK 40 AUDIO
    TITLE "4:cjc093_2455"
    INDEX 01 00:46:17
  TRACK 41 AUDIO
    TITLE "0:"
    INDEX 01 00:50:01
  TRACK 42 AUDIO
    TITLE "2:cjc093_2456"
    INDEX 01 00:51:13
  TRACK 43 AUDIO
    TITLE "0:"
    INDEX 01 00:52:10
  TRACK 44 AUDIO
    TITLE "3:cjc093_2457"
    INDEX 01 00:52:63
  TRACK 45 AUDIO
    TITLE "0:"
    INDEX 01 00:55:03
  TRACK 46 AUDIO
    TITLE "4:cjc093_2458"
    INDEX 01 00:55:06
  TRACK 47 AUDIO
    TITLE "0:"
    INDEX 01 00:57:48
  TRACK 48 AUDIO
    TITLE "3:cjc093_2459"
    INDEX 01 00:58:56
  TRACK 49 AUDIO
    TITLE "0:"
    INDEX 01 00:59:73
  TRACK 50 AUDIO
    TITLE "4:cjc093_2460"
    INDEX 01 01:00:57
  TRACK 51 AUDIO
    TITLE "0:"
    INDEX 01 01:03:04
  TRACK 52 AUDIO
    TITLE "2:cjc093_2461"
    INDEX 01 01:04:25
  TRACK 53 AUDIO
    TITLE "0:"
    INDEX 01 01:05:30
  TRACK 54 AUDIO
    TITLE "2:cjc093_2462"
    INDEX 01 01:06:10
  TRACK 55 AUDIO
    TITLE "0:"
    INDEX 01 01:07:31
  TRACK 56 AUDIO
    TITLE "3:cjc093_2463"
    INDEX 01 01:07:51
  TRACK 57 AUDIO
    TITLE "0:"
    INDEX 01 01:10:30
  TRACK 58 AUDIO
    TITLE "4:cjc093_2464"
    INDEX 01 01:10:67
  TRACK 59 AUDIO
    TITLE "0:"
    INDEX 01 01:13:61
  TRACK 60 AUDIO
    TITLE "3:cjc093_2465"
    INDEX 01 01:15:01
  TRACK 61 AUDIO
    TITLE "0:"
    INDEX 01 01:16:12
  TRACK 62 AUDIO
    TITLE "4:cjc093_2466"
    INDEX 01 01:16:44
  TRACK 63 AUDIO
    TITLE "0:"
    INDEX 01 01:19:30
  TRACK 64 AUDIO
    TITLE "3:cjc093_2467"
    INDEX 01 01:20:63
  TRACK 65 AUDIO
    TITLE "0:"
    INDEX 01 01:22:11
  TRACK 66 AUDIO
    TITLE "4:cjc093_2468"
    INDEX 01 01:22:44
  TRACK 67 AUDIO
    TITLE "0:"
    INDEX 01 01:25:19
  TRACK 68 AUDIO
    TITLE "2:cjc093_2469"
    INDEX 01 01:26:32
  TRACK 69 AUDIO
    TITLE "0:"
    INDEX 01 01:27:50
  TRACK 70 AUDIO
    TITLE "3:cjc093_2470"
    INDEX 01 01:27:65
  TRACK 71 AUDIO
    TITLE "0:"
    INDEX 01 01:29:07
  TRACK 72 AUDIO
    TITLE "4:cjc093_2471"
    INDEX 01 01:29:33
  TRACK 73 AUDIO
    TITLE "0:"
    INDEX 01 01:32:70
